<?xml version="1.0" encoding="utf-8"?>
<!-- Generator: Adobe Illustrator 24.0.0, SVG Export Plug-In . SVG Version: 6.00 Build 0)  -->
<svg version="1.1" id="Layer_1" xmlns="http://www.w3.org/2000/svg" xmlns:xlink="http://www.w3.org/1999/xlink" x="0px" y="0px"
	 viewBox="0 0 411.73 122.56" style="enable-background:new 0 0 411.73 122.56;" xml:space="preserve">
<style type="text/css">
	.st0{fill-rule:evenodd;clip-rule:evenodd;fill:#71423D;}
</style>
<g>
	<g>
		<polygon class="st0" points="48.26,49.38 0,0 0,75.75 10.87,75.75 10.87,27.95 59.06,76.3 59.06,1.08 48.12,1.08 		"/>
		<polygon class="st0" points="183.15,1.17 158.83,51.11 134.8,1.17 122.06,1.17 158.98,76.23 195.6,1.17 		"/>
		<path class="st0" d="M401.29,19.57v5.83c-4.7-3.48-10.52-5.54-16.83-5.54c-15.61,0-28.26,12.62-28.26,28.19
			c0,15.57,12.65,28.19,28.26,28.19c6.3,0,12.13-2.06,16.83-5.54v5.9H412c0-19.08,0-37.93,0-57.02H401.29z M401.29,51.18
			c-1.48,7.93-8.45,13.93-16.83,13.93c-9.45,0-17.12-7.64-17.12-17.07c0-9.43,7.66-17.07,17.12-17.07c8.38,0,15.35,6,16.83,13.93
			V51.18z"/>
		<path class="st0" d="M290.12,25.4c-4.7-3.48-10.52-5.54-16.83-5.54c-15.61,0-28.26,12.62-28.26,28.19
			c0,15.57,12.65,28.19,28.26,28.19c6.3,0,12.13-2.06,16.83-5.54v5.9h10.71c0-19.08,0-56.41,0-75.5h-10.71V25.4z M290.12,51.18
			c-1.48,7.93-8.45,13.93-16.83,13.93c-9.45,0-17.12-7.64-17.12-17.07c0-9.43,7.66-17.07,17.12-17.07c8.38,0,15.35,6,16.83,13.93
			V51.18z"/>
		<path class="st0" d="M113.34,19.53v29.45c0,8.97-7.36,16.31-16.36,16.31h-1.16c-9,0-16.36-7.34-16.36-16.31V19.53H68.54
			c-0.01,0.24-0.02,0.48-0.02,0.72v28.72c0,14.99,12.26,27.22,27.3,27.22h1.16c15.03,0,27.3-12.23,27.3-27.22v-29.3l0-0.15H113.34z"
			/>
		<path class="st0" d="M211.34,19.6c-15.45,0-27.98,12.72-27.98,28.41s12.53,28.41,27.98,28.41c6.35,0,12.21-2.15,16.91-5.78
			l-7.95-8.48c-2.58,1.8-5.72,2.85-9.1,2.85c-7.12,0-13.15-4.65-15.22-11.09l42.75-0.07c0.39-1.88,0.59-3.83,0.59-5.83
			C239.31,32.31,226.79,19.6,211.34,19.6z M196.45,42.75c2.43-5.75,8.11-9.78,14.74-9.78c6.63,0,12.31,4.03,14.74,9.78H196.45z"/>
		<polygon class="st0" points="345.95,19.64 333.51,44.83 320.91,19.5 308.5,19.82 327.24,57.14 308.61,95.07 321.06,95.07 
			357.9,19.64 		"/>
	</g>
	<g>
		<path class="st0" d="M62.69,117.12c0,0.22-0.01,0.39-0.02,0.55c-0.01,0.15-0.04,0.28-0.06,0.39c-0.03,0.11-0.07,0.2-0.12,0.28
			c-0.04,0.08-0.14,0.2-0.3,0.35c-0.16,0.15-0.43,0.35-0.8,0.57c-0.38,0.23-0.81,0.43-1.28,0.61c-0.48,0.18-0.99,0.33-1.55,0.44
			c-0.56,0.11-1.14,0.17-1.73,0.17c-1.23,0-2.32-0.2-3.26-0.59c-0.95-0.4-1.74-0.97-2.39-1.73c-0.64-0.76-1.13-1.69-1.47-2.79
			c-0.33-1.11-0.5-2.38-0.5-3.82c0-1.64,0.2-3.05,0.62-4.23c0.41-1.17,0.97-2.14,1.69-2.89c0.71-0.75,1.56-1.31,2.52-1.67
			c0.97-0.37,2.02-0.55,3.15-0.55c0.54,0,1.08,0.05,1.59,0.15c0.51,0.09,0.99,0.23,1.41,0.39c0.43,0.16,0.82,0.35,1.15,0.55
			c0.34,0.21,0.58,0.38,0.73,0.54c0.16,0.14,0.26,0.27,0.31,0.36c0.06,0.08,0.11,0.18,0.14,0.3c0.04,0.12,0.07,0.25,0.08,0.4
			c0.01,0.14,0.02,0.33,0.02,0.56c0,0.48-0.06,0.81-0.17,1c-0.12,0.2-0.25,0.29-0.42,0.29c-0.19,0-0.41-0.1-0.65-0.3
			c-0.25-0.21-0.56-0.43-0.94-0.67c-0.38-0.25-0.84-0.47-1.37-0.68c-0.54-0.21-1.17-0.31-1.91-0.31c-1.51,0-2.66,0.57-3.47,1.69
			c-0.8,1.13-1.21,2.77-1.21,4.91c0,1.07,0.11,2.01,0.31,2.82c0.21,0.81,0.52,1.48,0.92,2.03c0.41,0.54,0.9,0.95,1.49,1.21
			c0.59,0.26,1.27,0.4,2.03,0.4c0.72,0,1.36-0.11,1.9-0.33c0.54-0.22,1.02-0.47,1.41-0.73c0.4-0.27,0.74-0.51,1.01-0.72
			c0.27-0.21,0.48-0.32,0.63-0.32c0.08,0,0.16,0.03,0.23,0.07c0.07,0.05,0.12,0.13,0.16,0.25c0.05,0.12,0.07,0.27,0.09,0.44
			C62.67,116.66,62.69,116.87,62.69,117.12L62.69,117.12z M82.43,111.14c0,1.36-0.18,2.61-0.55,3.74c-0.36,1.14-0.91,2.13-1.64,2.96
			c-0.73,0.83-1.64,1.47-2.74,1.93c-1.1,0.46-2.37,0.69-3.81,0.69c-1.41,0-2.63-0.21-3.68-0.61c-1.04-0.4-1.92-1-2.61-1.77
			c-0.7-0.78-1.21-1.73-1.56-2.84c-0.34-1.11-0.51-2.37-0.51-3.77c0-1.36,0.18-2.61,0.54-3.75c0.36-1.14,0.91-2.13,1.63-2.96
			c0.73-0.83,1.64-1.47,2.73-1.92c1.09-0.46,2.36-0.69,3.81-0.69c1.41,0,2.63,0.2,3.68,0.61c1.04,0.4,1.92,1,2.61,1.77
			c0.7,0.78,1.22,1.72,1.57,2.83C82.26,108.5,82.43,109.75,82.43,111.14L82.43,111.14z M79.13,111.34c0-0.9-0.09-1.75-0.26-2.55
			c-0.17-0.8-0.46-1.5-0.84-2.11c-0.4-0.61-0.93-1.08-1.6-1.43c-0.68-0.35-1.51-0.53-2.51-0.53c-0.93,0-1.72,0.16-2.39,0.49
			c-0.66,0.32-1.21,0.77-1.64,1.36c-0.43,0.59-0.75,1.28-0.96,2.09c-0.21,0.8-0.31,1.67-0.31,2.63c0,0.91,0.09,1.77,0.26,2.57
			c0.17,0.8,0.45,1.5,0.85,2.1c0.4,0.6,0.94,1.07,1.6,1.43c0.67,0.35,1.51,0.52,2.51,0.52c0.92,0,1.71-0.16,2.38-0.48
			c0.67-0.32,1.23-0.77,1.65-1.35c0.43-0.57,0.75-1.27,0.95-2.07C79.02,113.19,79.13,112.31,79.13,111.34L79.13,111.34z
			 M101.78,119.66c0,0.09-0.03,0.18-0.08,0.25c-0.05,0.07-0.13,0.13-0.25,0.18c-0.12,0.05-0.27,0.09-0.47,0.11
			c-0.21,0.03-0.46,0.04-0.76,0.04c-0.32,0-0.58-0.01-0.78-0.04c-0.2-0.03-0.36-0.06-0.48-0.11c-0.11-0.05-0.2-0.11-0.25-0.18
			c-0.05-0.06-0.08-0.15-0.08-0.25v-9.75c0-0.95-0.07-1.72-0.23-2.29c-0.15-0.58-0.37-1.08-0.66-1.5c-0.29-0.42-0.67-0.74-1.13-0.96
			c-0.46-0.22-0.99-0.33-1.6-0.33c-0.79,0-1.57,0.27-2.36,0.82c-0.79,0.54-1.61,1.34-2.47,2.39v11.64c0,0.09-0.03,0.18-0.08,0.25
			c-0.05,0.07-0.14,0.13-0.25,0.18c-0.12,0.05-0.27,0.09-0.47,0.11c-0.21,0.03-0.47,0.04-0.79,0.04c-0.3,0-0.55-0.01-0.76-0.04
			c-0.2-0.03-0.37-0.06-0.48-0.11c-0.12-0.05-0.21-0.11-0.25-0.18c-0.04-0.06-0.07-0.15-0.07-0.25V103c0-0.1,0.02-0.18,0.06-0.25
			c0.04-0.06,0.12-0.13,0.23-0.19c0.12-0.06,0.26-0.09,0.44-0.11c0.18-0.02,0.41-0.03,0.7-0.03c0.28,0,0.51,0.01,0.69,0.03
			c0.18,0.02,0.33,0.05,0.43,0.11c0.1,0.06,0.17,0.12,0.22,0.19c0.04,0.07,0.06,0.15,0.06,0.25v2.2c0.96-1.05,1.92-1.82,2.88-2.3
			c0.95-0.49,1.92-0.73,2.89-0.73c1.14,0,2.1,0.19,2.88,0.57c0.78,0.37,1.41,0.88,1.89,1.5c0.48,0.63,0.83,1.37,1.03,2.21
			c0.21,0.85,0.32,1.86,0.32,3.04V119.66L101.78,119.66z M122.23,119.66c0,0.09-0.03,0.18-0.08,0.25c-0.05,0.07-0.13,0.13-0.25,0.18
			c-0.12,0.05-0.27,0.09-0.47,0.11c-0.21,0.03-0.46,0.04-0.76,0.04c-0.32,0-0.58-0.01-0.78-0.04c-0.2-0.03-0.36-0.06-0.47-0.11
			c-0.11-0.05-0.19-0.11-0.25-0.18c-0.05-0.06-0.08-0.15-0.08-0.25v-9.75c0-0.95-0.07-1.72-0.22-2.29c-0.15-0.58-0.37-1.08-0.66-1.5
			c-0.29-0.42-0.67-0.74-1.13-0.96c-0.46-0.22-0.99-0.33-1.6-0.33c-0.79,0-1.57,0.27-2.36,0.82c-0.79,0.54-1.61,1.34-2.47,2.39
			v11.64c0,0.09-0.03,0.18-0.08,0.25c-0.05,0.07-0.14,0.13-0.25,0.18c-0.12,0.05-0.27,0.09-0.47,0.11
			c-0.21,0.03-0.47,0.04-0.79,0.04c-0.3,0-0.55-0.01-0.76-0.04c-0.2-0.03-0.36-0.06-0.48-0.11c-0.12-0.05-0.21-0.11-0.25-0.18
			c-0.04-0.06-0.07-0.15-0.07-0.25V103c0-0.1,0.02-0.18,0.06-0.25c0.04-0.06,0.12-0.13,0.23-0.19c0.12-0.06,0.26-0.09,0.44-0.11
			c0.18-0.02,0.41-0.03,0.7-0.03c0.28,0,0.51,0.01,0.69,0.03c0.18,0.02,0.33,0.05,0.43,0.11c0.1,0.06,0.18,0.12,0.22,0.19
			c0.04,0.07,0.07,0.15,0.07,0.25v2.2c0.96-1.05,1.92-1.82,2.88-2.3c0.95-0.49,1.92-0.73,2.89-0.73c1.14,0,2.1,0.19,2.88,0.57
			c0.78,0.37,1.41,0.88,1.89,1.5c0.48,0.63,0.82,1.37,1.03,2.21c0.21,0.85,0.32,1.86,0.32,3.04V119.66L122.23,119.66z M142.54,110.6
			c0,0.48-0.12,0.83-0.37,1.03c-0.25,0.2-0.52,0.3-0.84,0.3h-11.22c0,0.93,0.1,1.76,0.29,2.5c0.19,0.74,0.5,1.37,0.95,1.9
			c0.44,0.53,1.02,0.94,1.73,1.23c0.71,0.28,1.57,0.42,2.6,0.42c0.81,0,1.53-0.06,2.17-0.2c0.63-0.13,1.18-0.27,1.64-0.43
			c0.46-0.16,0.85-0.3,1.14-0.43c0.3-0.13,0.52-0.2,0.67-0.2c0.08,0,0.17,0.02,0.23,0.06c0.07,0.04,0.13,0.11,0.16,0.2
			c0.04,0.09,0.07,0.21,0.09,0.36c0.01,0.15,0.03,0.34,0.03,0.56c0,0.17-0.01,0.3-0.02,0.42c-0.01,0.12-0.03,0.22-0.05,0.32
			c-0.02,0.09-0.05,0.18-0.1,0.25c-0.05,0.07-0.11,0.15-0.17,0.21c-0.07,0.07-0.28,0.18-0.62,0.34c-0.34,0.15-0.79,0.3-1.33,0.45
			c-0.54,0.14-1.18,0.28-1.89,0.4c-0.71,0.11-1.48,0.18-2.29,0.18c-1.41,0-2.64-0.2-3.7-0.57c-1.06-0.38-1.95-0.95-2.67-1.7
			c-0.72-0.75-1.27-1.69-1.63-2.83c-0.37-1.14-0.55-2.46-0.55-3.96c0-1.43,0.19-2.72,0.57-3.86c0.38-1.14,0.92-2.11,1.65-2.91
			c0.71-0.8,1.57-1.4,2.59-1.83c1.01-0.42,2.15-0.64,3.4-0.64c1.34,0,2.49,0.21,3.43,0.63c0.94,0.42,1.72,0.98,2.33,1.69
			c0.61,0.71,1.05,1.54,1.34,2.49c0.28,0.96,0.43,1.98,0.43,3.06V110.6L142.54,110.6z M139.39,109.7c0.04-1.61-0.32-2.87-1.1-3.78
			c-0.76-0.92-1.9-1.37-3.41-1.37c-0.78,0-1.45,0.14-2.04,0.43c-0.58,0.28-1.07,0.66-1.46,1.12c-0.4,0.47-0.7,1.02-0.91,1.64
			c-0.22,0.63-0.34,1.28-0.36,1.96H139.39L139.39,109.7z M159.61,117.12c0,0.22-0.01,0.39-0.02,0.55c-0.01,0.15-0.04,0.28-0.07,0.39
			c-0.03,0.11-0.07,0.2-0.12,0.28c-0.04,0.08-0.14,0.2-0.3,0.35c-0.16,0.15-0.43,0.35-0.81,0.57c-0.38,0.23-0.81,0.43-1.28,0.61
			c-0.48,0.18-0.99,0.33-1.55,0.44c-0.56,0.11-1.14,0.17-1.73,0.17c-1.23,0-2.31-0.2-3.26-0.59c-0.95-0.4-1.74-0.97-2.39-1.73
			c-0.64-0.76-1.13-1.69-1.47-2.79c-0.33-1.11-0.5-2.38-0.5-3.82c0-1.64,0.2-3.05,0.62-4.23c0.41-1.17,0.97-2.14,1.69-2.89
			c0.71-0.75,1.56-1.31,2.52-1.67c0.97-0.37,2.02-0.55,3.15-0.55c0.54,0,1.08,0.05,1.59,0.15c0.51,0.09,0.99,0.23,1.41,0.39
			c0.43,0.16,0.82,0.35,1.15,0.55c0.34,0.21,0.58,0.38,0.73,0.54c0.16,0.14,0.26,0.27,0.31,0.36c0.06,0.08,0.11,0.18,0.14,0.3
			c0.04,0.12,0.07,0.25,0.08,0.4c0.01,0.14,0.02,0.33,0.02,0.56c0,0.48-0.06,0.81-0.17,1c-0.12,0.2-0.25,0.29-0.42,0.29
			c-0.19,0-0.41-0.1-0.66-0.3c-0.25-0.21-0.56-0.43-0.94-0.67c-0.37-0.25-0.84-0.47-1.37-0.68c-0.54-0.21-1.17-0.31-1.91-0.31
			c-1.51,0-2.66,0.57-3.47,1.69c-0.8,1.13-1.21,2.77-1.21,4.91c0,1.07,0.11,2.01,0.31,2.82c0.21,0.81,0.52,1.48,0.92,2.03
			c0.41,0.54,0.9,0.95,1.49,1.21c0.59,0.26,1.27,0.4,2.03,0.4c0.72,0,1.36-0.11,1.9-0.33c0.54-0.22,1.02-0.47,1.41-0.73
			c0.4-0.27,0.74-0.51,1.01-0.72c0.27-0.21,0.48-0.32,0.63-0.32c0.08,0,0.16,0.03,0.22,0.07c0.07,0.05,0.12,0.13,0.16,0.25
			c0.05,0.12,0.07,0.27,0.09,0.44C159.6,116.66,159.61,116.87,159.61,117.12L159.61,117.12z M172.66,118.43
			c0,0.36-0.03,0.64-0.07,0.85c-0.05,0.21-0.13,0.37-0.23,0.46c-0.1,0.1-0.25,0.2-0.45,0.28c-0.2,0.09-0.44,0.16-0.7,0.21
			c-0.26,0.06-0.53,0.1-0.82,0.14c-0.29,0.04-0.59,0.06-0.88,0.06c-0.89,0-1.65-0.11-2.28-0.34c-0.63-0.23-1.15-0.57-1.56-1.04
			c-0.4-0.47-0.7-1.05-0.88-1.76c-0.18-0.71-0.27-1.54-0.27-2.51v-9.73h-2.4c-0.19,0-0.34-0.09-0.45-0.3
			c-0.12-0.2-0.17-0.52-0.17-0.96c0-0.23,0.01-0.43,0.04-0.59c0.03-0.16,0.07-0.29,0.13-0.4c0.05-0.1,0.11-0.18,0.2-0.22
			c0.08-0.05,0.18-0.07,0.27-0.07h2.38v-3.96c0-0.09,0.02-0.16,0.07-0.24c0.04-0.08,0.12-0.14,0.25-0.2
			c0.11-0.06,0.28-0.09,0.48-0.12c0.2-0.03,0.45-0.04,0.76-0.04c0.32,0,0.58,0.01,0.78,0.04c0.2,0.03,0.36,0.06,0.47,0.12
			c0.12,0.06,0.2,0.12,0.25,0.2c0.05,0.08,0.08,0.15,0.08,0.24v3.96h4.39c0.1,0,0.19,0.02,0.26,0.07c0.07,0.04,0.14,0.12,0.19,0.22
			c0.06,0.11,0.11,0.24,0.12,0.4c0.03,0.16,0.04,0.36,0.04,0.59c0,0.44-0.05,0.77-0.17,0.96c-0.12,0.2-0.27,0.3-0.45,0.3h-4.39v9.29
			c0,1.15,0.17,2.01,0.52,2.6c0.35,0.58,0.97,0.88,1.87,0.88c0.29,0,0.55-0.03,0.78-0.08c0.23-0.06,0.44-0.12,0.61-0.18
			c0.17-0.06,0.33-0.12,0.46-0.18c0.13-0.06,0.24-0.08,0.34-0.08c0.07,0,0.12,0.01,0.18,0.04c0.06,0.03,0.1,0.09,0.13,0.18
			c0.03,0.09,0.07,0.2,0.08,0.35C172.65,118.03,172.66,118.21,172.66,118.43L172.66,118.43z M209.54,102.96
			c0,0.09-0.01,0.19-0.04,0.32c-0.03,0.13-0.07,0.28-0.14,0.46l-5.03,15.82c-0.04,0.14-0.1,0.25-0.18,0.33
			c-0.08,0.09-0.19,0.15-0.34,0.2c-0.14,0.05-0.34,0.08-0.6,0.1c-0.25,0.02-0.57,0.03-0.95,0.03c-0.4,0-0.73-0.01-0.99-0.04
			s-0.47-0.06-0.64-0.11c-0.16-0.05-0.27-0.11-0.35-0.2s-0.13-0.19-0.17-0.32l-3.59-12.08l-0.04-0.16l-0.04,0.16l-3.33,12.08
			c-0.03,0.14-0.1,0.25-0.18,0.33c-0.08,0.09-0.21,0.15-0.37,0.2c-0.17,0.05-0.38,0.08-0.64,0.1c-0.26,0.02-0.58,0.03-0.96,0.03
			c-0.39,0-0.71-0.01-0.96-0.04c-0.25-0.03-0.45-0.06-0.6-0.11c-0.16-0.05-0.28-0.11-0.35-0.2c-0.08-0.09-0.14-0.19-0.17-0.32
			l-4.99-15.82c-0.07-0.18-0.11-0.33-0.14-0.46c-0.03-0.13-0.04-0.23-0.04-0.32c0-0.11,0.03-0.2,0.08-0.26
			c0.05-0.07,0.13-0.13,0.26-0.17c0.12-0.04,0.28-0.07,0.48-0.08c0.21-0.01,0.46-0.02,0.75-0.02c0.35,0,0.63,0.01,0.85,0.03
			c0.22,0.02,0.38,0.04,0.5,0.09c0.11,0.05,0.2,0.11,0.25,0.19c0.05,0.08,0.09,0.17,0.13,0.28l4.13,13.73l0.04,0.16l0.04-0.16
			l3.78-13.73c0.02-0.11,0.06-0.21,0.12-0.28c0.05-0.08,0.14-0.15,0.25-0.19c0.12-0.04,0.27-0.07,0.47-0.09
			c0.2-0.02,0.45-0.03,0.77-0.03c0.3,0,0.55,0.01,0.74,0.03c0.2,0.02,0.36,0.04,0.47,0.09c0.12,0.05,0.2,0.1,0.25,0.18
			c0.05,0.08,0.09,0.16,0.12,0.26l4.09,13.77l0.04,0.16l0.01-0.16l4.07-13.73c0.03-0.11,0.07-0.21,0.13-0.28
			c0.06-0.08,0.15-0.15,0.26-0.19c0.12-0.04,0.29-0.07,0.5-0.09c0.21-0.02,0.47-0.03,0.81-0.03c0.3,0,0.55,0.01,0.73,0.02
			c0.18,0.01,0.33,0.04,0.43,0.09c0.11,0.05,0.19,0.1,0.23,0.17C209.51,102.77,209.54,102.85,209.54,102.96L209.54,102.96z
			 M216.57,119.66c0,0.09-0.03,0.18-0.08,0.25c-0.05,0.07-0.14,0.13-0.25,0.18c-0.12,0.05-0.27,0.09-0.47,0.11
			c-0.21,0.03-0.47,0.04-0.79,0.04c-0.3,0-0.55-0.01-0.76-0.04c-0.2-0.03-0.36-0.06-0.48-0.11c-0.12-0.05-0.21-0.11-0.25-0.18
			c-0.05-0.06-0.07-0.15-0.07-0.25V103c0-0.09,0.03-0.16,0.07-0.24c0.04-0.08,0.12-0.14,0.25-0.18c0.12-0.05,0.28-0.09,0.48-0.12
			c0.21-0.03,0.46-0.04,0.76-0.04c0.32,0,0.58,0.01,0.79,0.04c0.2,0.03,0.36,0.06,0.47,0.12c0.11,0.04,0.19,0.11,0.25,0.18
			c0.05,0.08,0.08,0.15,0.08,0.24V119.66L216.57,119.66z M216.92,97.37c0,0.72-0.13,1.21-0.41,1.47c-0.28,0.26-0.79,0.38-1.54,0.38
			c-0.74,0-1.24-0.13-1.51-0.38c-0.27-0.25-0.41-0.73-0.41-1.43c0-0.71,0.14-1.2,0.42-1.46c0.28-0.26,0.79-0.39,1.54-0.39
			c0.74,0,1.24,0.13,1.51,0.38C216.79,96.19,216.92,96.67,216.92,97.37L216.92,97.37z M231.26,118.43c0,0.36-0.03,0.64-0.07,0.85
			c-0.05,0.21-0.13,0.37-0.23,0.46c-0.1,0.1-0.25,0.2-0.45,0.28c-0.2,0.09-0.44,0.16-0.7,0.21c-0.26,0.06-0.53,0.1-0.82,0.14
			c-0.29,0.04-0.58,0.06-0.88,0.06c-0.89,0-1.65-0.11-2.28-0.34c-0.63-0.23-1.15-0.57-1.56-1.04c-0.4-0.47-0.7-1.05-0.88-1.76
			c-0.18-0.71-0.27-1.54-0.27-2.51v-9.73h-2.4c-0.19,0-0.34-0.09-0.45-0.3c-0.12-0.2-0.17-0.52-0.17-0.96
			c0-0.23,0.01-0.43,0.05-0.59c0.03-0.16,0.07-0.29,0.12-0.4c0.05-0.1,0.12-0.18,0.2-0.22c0.08-0.05,0.17-0.07,0.27-0.07h2.38v-3.96
			c0-0.09,0.02-0.16,0.07-0.24c0.05-0.08,0.12-0.14,0.25-0.2c0.12-0.06,0.28-0.09,0.49-0.12c0.2-0.03,0.45-0.04,0.76-0.04
			c0.32,0,0.58,0.01,0.78,0.04c0.2,0.03,0.36,0.06,0.47,0.12c0.12,0.06,0.2,0.12,0.25,0.2c0.05,0.08,0.08,0.15,0.08,0.24v3.96h4.39
			c0.1,0,0.19,0.02,0.26,0.07c0.07,0.04,0.14,0.12,0.2,0.22c0.06,0.11,0.1,0.24,0.12,0.4c0.03,0.16,0.04,0.36,0.04,0.59
			c0,0.44-0.05,0.77-0.17,0.96c-0.12,0.2-0.27,0.3-0.45,0.3h-4.39v9.29c0,1.15,0.18,2.01,0.52,2.6c0.35,0.58,0.97,0.88,1.87,0.88
			c0.29,0,0.55-0.03,0.78-0.08c0.22-0.06,0.43-0.12,0.61-0.18c0.17-0.06,0.33-0.12,0.46-0.18c0.13-0.06,0.24-0.08,0.34-0.08
			c0.07,0,0.12,0.01,0.18,0.04c0.06,0.03,0.1,0.09,0.13,0.18c0.03,0.09,0.07,0.2,0.08,0.35
			C231.24,118.03,231.26,118.21,231.26,118.43L231.26,118.43z M250.13,119.66c0,0.09-0.03,0.18-0.08,0.25
			c-0.05,0.07-0.13,0.13-0.25,0.18c-0.12,0.05-0.27,0.09-0.47,0.11c-0.21,0.03-0.46,0.04-0.76,0.04c-0.32,0-0.58-0.01-0.78-0.04
			c-0.2-0.03-0.36-0.06-0.47-0.11c-0.11-0.05-0.19-0.11-0.25-0.18c-0.05-0.06-0.08-0.15-0.08-0.25v-9.75c0-0.95-0.07-1.72-0.23-2.29
			c-0.15-0.58-0.37-1.08-0.66-1.5c-0.29-0.42-0.67-0.74-1.13-0.96c-0.46-0.22-0.99-0.33-1.6-0.33c-0.78,0-1.57,0.27-2.35,0.82
			c-0.79,0.54-1.62,1.34-2.47,2.39v11.64c0,0.09-0.03,0.18-0.08,0.25c-0.05,0.07-0.14,0.13-0.25,0.18
			c-0.12,0.05-0.27,0.09-0.47,0.11c-0.21,0.03-0.47,0.04-0.79,0.04c-0.3,0-0.55-0.01-0.76-0.04c-0.2-0.03-0.36-0.06-0.48-0.11
			c-0.12-0.05-0.21-0.11-0.25-0.18c-0.05-0.06-0.07-0.15-0.07-0.25V94.93c0-0.1,0.03-0.19,0.07-0.26c0.04-0.08,0.12-0.14,0.25-0.19
			c0.12-0.04,0.28-0.08,0.48-0.11c0.21-0.03,0.46-0.04,0.76-0.04c0.32,0,0.58,0.01,0.79,0.04c0.2,0.03,0.36,0.06,0.47,0.11
			c0.11,0.05,0.19,0.11,0.25,0.19c0.05,0.07,0.08,0.16,0.08,0.26v9.97c0.9-0.93,1.8-1.62,2.72-2.06c0.91-0.45,1.83-0.68,2.75-0.68
			c1.14,0,2.1,0.19,2.88,0.57c0.78,0.37,1.41,0.88,1.89,1.5c0.48,0.63,0.82,1.37,1.03,2.21c0.21,0.85,0.32,1.87,0.32,3.06V119.66
			L250.13,119.66z M279.38,119.66c0,0.09-0.03,0.18-0.08,0.25c-0.05,0.07-0.13,0.13-0.25,0.18c-0.12,0.05-0.27,0.09-0.47,0.11
			c-0.21,0.03-0.46,0.04-0.76,0.04c-0.32,0-0.58-0.01-0.78-0.04c-0.2-0.03-0.36-0.06-0.48-0.11c-0.11-0.05-0.2-0.11-0.25-0.18
			c-0.05-0.06-0.08-0.15-0.08-0.25v-9.75c0-0.95-0.07-1.72-0.23-2.29c-0.15-0.58-0.37-1.08-0.66-1.5c-0.29-0.42-0.67-0.74-1.13-0.96
			c-0.46-0.22-0.99-0.33-1.6-0.33c-0.79,0-1.57,0.27-2.36,0.82c-0.79,0.54-1.61,1.34-2.47,2.39v11.64c0,0.09-0.03,0.18-0.08,0.25
			c-0.05,0.07-0.14,0.13-0.25,0.18c-0.12,0.05-0.27,0.09-0.47,0.11c-0.21,0.03-0.47,0.04-0.79,0.04c-0.3,0-0.55-0.01-0.76-0.04
			c-0.2-0.03-0.37-0.06-0.48-0.11c-0.12-0.05-0.21-0.11-0.25-0.18c-0.04-0.06-0.07-0.15-0.07-0.25V103c0-0.1,0.02-0.18,0.06-0.25
			c0.04-0.06,0.12-0.13,0.23-0.19c0.12-0.06,0.26-0.09,0.44-0.11c0.17-0.02,0.41-0.03,0.7-0.03c0.28,0,0.51,0.01,0.69,0.03
			c0.18,0.02,0.33,0.05,0.43,0.11c0.1,0.06,0.17,0.12,0.22,0.19c0.04,0.07,0.06,0.15,0.06,0.25v2.2c0.96-1.05,1.92-1.82,2.88-2.3
			c0.95-0.49,1.92-0.73,2.89-0.73c1.14,0,2.1,0.19,2.88,0.57c0.78,0.37,1.41,0.88,1.89,1.5c0.48,0.63,0.83,1.37,1.03,2.21
			c0.21,0.85,0.32,1.86,0.32,3.04V119.66L279.38,119.66z M297.99,119.67c0,0.15-0.05,0.26-0.16,0.33c-0.1,0.08-0.24,0.13-0.41,0.17
			c-0.19,0.04-0.44,0.06-0.78,0.06c-0.33,0-0.6-0.02-0.79-0.06c-0.2-0.04-0.34-0.09-0.43-0.17c-0.09-0.07-0.13-0.18-0.13-0.33v-1.67
			c-0.75,0.78-1.58,1.38-2.51,1.81c-0.91,0.43-1.89,0.65-2.91,0.65c-0.9,0-1.72-0.11-2.44-0.35c-0.73-0.23-1.35-0.55-1.87-0.99
			c-0.51-0.44-0.91-0.97-1.2-1.59c-0.28-0.63-0.42-1.35-0.42-2.15c0-0.94,0.19-1.75,0.58-2.44c0.4-0.69,0.96-1.26,1.69-1.72
			c0.73-0.46,1.64-0.8,2.7-1.03c1.06-0.23,2.26-0.34,3.6-0.34h2.35v-1.29c0-0.65-0.07-1.21-0.21-1.7c-0.14-0.49-0.37-0.9-0.68-1.23
			c-0.31-0.33-0.71-0.58-1.21-0.75c-0.49-0.16-1.1-0.25-1.82-0.25c-0.78,0-1.47,0.09-2.08,0.26c-0.62,0.18-1.16,0.38-1.61,0.6
			c-0.47,0.21-0.85,0.41-1.16,0.59c-0.31,0.18-0.54,0.26-0.7,0.26c-0.1,0-0.19-0.03-0.26-0.07c-0.08-0.05-0.14-0.13-0.2-0.23
			c-0.05-0.09-0.1-0.22-0.12-0.38c-0.03-0.15-0.04-0.32-0.04-0.51c0-0.31,0.03-0.55,0.07-0.73c0.05-0.18,0.15-0.35,0.32-0.51
			c0.17-0.16,0.46-0.35,0.88-0.56c0.42-0.21,0.9-0.41,1.44-0.59c0.54-0.18,1.14-0.32,1.79-0.44c0.64-0.12,1.3-0.18,1.96-0.18
			c1.23,0,2.27,0.14,3.13,0.41c0.86,0.27,1.56,0.67,2.09,1.19c0.53,0.53,0.92,1.18,1.16,1.95c0.24,0.78,0.36,1.68,0.36,2.72V119.67
			L297.99,119.67z M294.86,112.07h-2.68c-0.86,0-1.61,0.07-2.25,0.21c-0.63,0.15-1.15,0.36-1.58,0.63c-0.41,0.28-0.73,0.61-0.92,1
			c-0.2,0.39-0.29,0.83-0.29,1.34c0,0.86,0.28,1.55,0.85,2.06c0.56,0.51,1.36,0.77,2.37,0.77c0.82,0,1.58-0.2,2.29-0.61
			c0.7-0.4,1.44-1.03,2.21-1.87V112.07z"/>
		<path class="st0" d="M312.27,118.43c0,0.36-0.03,0.64-0.07,0.85c-0.05,0.21-0.13,0.37-0.23,0.46c-0.1,0.1-0.25,0.2-0.45,0.28
			c-0.2,0.09-0.44,0.16-0.7,0.21c-0.26,0.06-0.53,0.1-0.82,0.14c-0.29,0.04-0.58,0.06-0.88,0.06c-0.89,0-1.65-0.11-2.28-0.34
			c-0.63-0.23-1.15-0.57-1.56-1.04c-0.4-0.47-0.7-1.05-0.88-1.76c-0.18-0.71-0.27-1.54-0.27-2.51v-9.73h-2.4
			c-0.19,0-0.34-0.09-0.45-0.3c-0.12-0.2-0.17-0.52-0.17-0.96c0-0.23,0.01-0.43,0.05-0.59c0.03-0.16,0.07-0.29,0.12-0.4
			c0.05-0.1,0.12-0.18,0.2-0.22c0.08-0.05,0.17-0.07,0.27-0.07h2.38v-3.96c0-0.09,0.02-0.16,0.07-0.24c0.04-0.08,0.12-0.14,0.25-0.2
			c0.11-0.06,0.28-0.09,0.49-0.12c0.2-0.03,0.45-0.04,0.76-0.04c0.32,0,0.58,0.01,0.78,0.04c0.2,0.03,0.36,0.06,0.47,0.12
			c0.12,0.06,0.2,0.12,0.25,0.2c0.05,0.08,0.08,0.15,0.08,0.24v3.96h4.39c0.1,0,0.19,0.02,0.26,0.07c0.07,0.04,0.14,0.12,0.2,0.22
			c0.06,0.11,0.1,0.24,0.12,0.4c0.03,0.16,0.04,0.36,0.04,0.59c0,0.44-0.05,0.77-0.17,0.96c-0.12,0.2-0.27,0.3-0.45,0.3h-4.39v9.29
			c0,1.15,0.18,2.01,0.52,2.6c0.35,0.58,0.97,0.88,1.87,0.88c0.29,0,0.55-0.03,0.78-0.08c0.22-0.06,0.43-0.12,0.61-0.18
			c0.17-0.06,0.33-0.12,0.46-0.18c0.13-0.06,0.24-0.08,0.34-0.08c0.07,0,0.12,0.01,0.18,0.04c0.06,0.03,0.1,0.09,0.13,0.18
			c0.03,0.09,0.07,0.2,0.08,0.35C312.26,118.03,312.27,118.21,312.27,118.43L312.27,118.43z M331.07,119.66
			c0,0.09-0.02,0.18-0.07,0.25c-0.05,0.07-0.12,0.13-0.24,0.18c-0.11,0.05-0.26,0.09-0.45,0.11c-0.18,0.03-0.41,0.04-0.67,0.04
			c-0.29,0-0.53-0.01-0.71-0.04c-0.18-0.03-0.33-0.06-0.44-0.11c-0.11-0.05-0.18-0.11-0.22-0.18c-0.03-0.06-0.05-0.15-0.05-0.25
			v-2.21c-0.98,1.05-1.94,1.81-2.89,2.29c-0.95,0.49-1.91,0.73-2.89,0.73c-1.14,0-2.1-0.19-2.88-0.56
			c-0.78-0.37-1.41-0.87-1.89-1.51c-0.49-0.64-0.83-1.38-1.04-2.22c-0.21-0.84-0.31-1.87-0.31-3.08V103c0-0.1,0.02-0.18,0.07-0.25
			c0.04-0.06,0.13-0.13,0.25-0.19c0.13-0.06,0.29-0.09,0.5-0.11c0.2-0.02,0.45-0.03,0.76-0.03c0.3,0,0.56,0.01,0.76,0.03
			c0.2,0.02,0.36,0.05,0.49,0.11c0.12,0.06,0.2,0.12,0.25,0.19c0.05,0.07,0.08,0.15,0.08,0.25v9.69c0,0.97,0.07,1.76,0.22,2.34
			c0.14,0.59,0.37,1.09,0.66,1.5c0.3,0.42,0.67,0.73,1.13,0.96c0.46,0.23,0.99,0.35,1.6,0.35c0.78,0,1.56-0.27,2.34-0.81
			c0.79-0.54,1.61-1.34,2.48-2.39V103c0-0.1,0.02-0.18,0.07-0.25c0.04-0.06,0.13-0.13,0.26-0.19c0.12-0.06,0.29-0.09,0.48-0.11
			c0.2-0.02,0.45-0.03,0.77-0.03c0.3,0,0.56,0.01,0.76,0.03c0.2,0.02,0.36,0.05,0.47,0.11c0.12,0.06,0.2,0.12,0.26,0.19
			c0.06,0.07,0.08,0.15,0.08,0.25V119.66L331.07,119.66z M346.86,104.09c0,0.27-0.01,0.5-0.02,0.68c-0.01,0.19-0.04,0.33-0.07,0.44
			c-0.04,0.11-0.09,0.18-0.14,0.24c-0.06,0.06-0.14,0.08-0.24,0.08c-0.1,0-0.23-0.03-0.37-0.08c-0.15-0.06-0.31-0.11-0.49-0.17
			c-0.19-0.06-0.39-0.11-0.62-0.16c-0.24-0.05-0.48-0.08-0.75-0.08c-0.32,0-0.62,0.06-0.93,0.19c-0.3,0.12-0.63,0.32-0.96,0.61
			c-0.34,0.28-0.69,0.66-1.06,1.13c-0.36,0.47-0.77,1.04-1.21,1.72v10.96c0,0.09-0.03,0.18-0.08,0.25
			c-0.05,0.07-0.13,0.13-0.25,0.18c-0.12,0.05-0.27,0.09-0.47,0.11c-0.21,0.03-0.47,0.04-0.79,0.04c-0.3,0-0.55-0.01-0.76-0.04
			c-0.2-0.03-0.37-0.06-0.48-0.11c-0.12-0.05-0.21-0.11-0.25-0.18c-0.05-0.06-0.07-0.15-0.07-0.25V103c0-0.1,0.02-0.18,0.06-0.25
			c0.04-0.06,0.12-0.13,0.23-0.19c0.12-0.06,0.26-0.09,0.44-0.11c0.18-0.02,0.41-0.03,0.7-0.03c0.28,0,0.51,0.01,0.69,0.03
			c0.18,0.02,0.33,0.05,0.43,0.11c0.1,0.06,0.17,0.12,0.22,0.19c0.04,0.07,0.06,0.15,0.06,0.25v2.43c0.47-0.67,0.91-1.21,1.32-1.63
			c0.41-0.42,0.8-0.75,1.17-0.99c0.36-0.24,0.73-0.41,1.09-0.5c0.37-0.09,0.73-0.14,1.09-0.14c0.17,0,0.36,0.01,0.57,0.03
			c0.21,0.02,0.43,0.05,0.66,0.1c0.22,0.05,0.43,0.1,0.61,0.16c0.19,0.06,0.32,0.13,0.39,0.19c0.08,0.06,0.13,0.12,0.16,0.18
			c0.03,0.06,0.05,0.13,0.07,0.21c0.02,0.09,0.03,0.21,0.04,0.38C346.86,103.58,346.86,103.81,346.86,104.09L346.86,104.09z
			 M364.52,110.6c0,0.48-0.12,0.83-0.37,1.03c-0.25,0.2-0.53,0.3-0.85,0.3H352.1c0,0.93,0.1,1.76,0.28,2.5
			c0.19,0.74,0.51,1.37,0.95,1.9c0.44,0.53,1.02,0.94,1.73,1.23c0.71,0.28,1.58,0.42,2.61,0.42c0.81,0,1.53-0.06,2.17-0.2
			c0.63-0.13,1.18-0.27,1.64-0.43c0.46-0.16,0.84-0.3,1.14-0.43c0.3-0.13,0.52-0.2,0.67-0.2c0.08,0,0.17,0.02,0.23,0.06
			c0.07,0.04,0.12,0.11,0.16,0.2c0.04,0.09,0.07,0.21,0.09,0.36c0.01,0.15,0.03,0.34,0.03,0.56c0,0.17-0.01,0.3-0.02,0.42
			c-0.01,0.12-0.03,0.22-0.05,0.32c-0.02,0.09-0.05,0.18-0.1,0.25c-0.05,0.07-0.1,0.15-0.17,0.21c-0.07,0.07-0.28,0.18-0.62,0.34
			c-0.34,0.15-0.79,0.3-1.33,0.45c-0.54,0.14-1.17,0.28-1.89,0.4c-0.71,0.11-1.48,0.18-2.29,0.18c-1.41,0-2.64-0.2-3.7-0.57
			c-1.06-0.38-1.95-0.95-2.67-1.7c-0.72-0.75-1.27-1.69-1.63-2.83c-0.37-1.14-0.55-2.46-0.55-3.96c0-1.43,0.19-2.72,0.57-3.86
			c0.38-1.14,0.93-2.11,1.65-2.91c0.71-0.8,1.58-1.4,2.6-1.83c1.01-0.42,2.15-0.64,3.4-0.64c1.34,0,2.49,0.21,3.43,0.63
			c0.94,0.42,1.72,0.98,2.33,1.69c0.61,0.71,1.05,1.54,1.34,2.49c0.28,0.96,0.43,1.98,0.43,3.06V110.6L364.52,110.6z M361.37,109.7
			c0.04-1.61-0.32-2.87-1.1-3.78c-0.77-0.92-1.9-1.37-3.41-1.37c-0.78,0-1.45,0.14-2.04,0.43c-0.58,0.28-1.07,0.66-1.46,1.12
			c-0.4,0.47-0.7,1.02-0.91,1.64c-0.21,0.63-0.34,1.28-0.36,1.96H361.37z"/>
	</g>
</g>
</svg>
